HIERARCHY
ROOT Hips
{
	OFFSET 0.000000 0.000000 0.000000
	CHANNELS 6 Xposition Yposition Zposition Zrotation Yrotation Xrotation 
	JOINT LHipJoint
	{
		OFFSET 0.000000 0.000000 0.000000
		CHANNELS 3 Zrotation Yrotation Xrotation
		JOINT LeftUpLeg
		{
			OFFSET 1.363060 -1.794630 0.839290
			CHANNELS 3 Zrotation Yrotation Xrotation
			JOINT LeftLeg
			{
				OFFSET 2.448110 -6.726130 0.000000
				CHANNELS 3 Zrotation Yrotation Xrotation
				JOINT LeftFoot
				{
					OFFSET 2.562200 -7.039590 0.000000
					CHANNELS 3 Zrotation Yrotation Xrotation
					JOINT LeftToeBase
					{
						OFFSET 0.157640 -0.433110 2.322550
						CHANNELS 3 Zrotation Yrotation Xrotation
						End Site
						{
							OFFSET 0.000000 0.000000 0.000000
						}
					}
				}
			}
		}
	}
	JOINT RHipJoint
	{
		OFFSET 0.000000 0.000000 0.000000
		CHANNELS 3 Zrotation Yrotation Xrotation
		JOINT RightUpLeg
		{
			OFFSET -1.305520 -1.794630 0.839290
			CHANNELS 3 Zrotation Yrotation Xrotation
			JOINT RightLeg
			{
				OFFSET -2.542530 -6.985550 0.000000
				CHANNELS 3 Zrotation Yrotation Xrotation
				JOINT RightFoot
				{
					OFFSET -2.568260 -7.056230 0.000000
					CHANNELS 3 Zrotation Yrotation Xrotation
					JOINT RightToeBase
					{
						OFFSET -0.164730 -0.452590 2.363150
						CHANNELS 3 Zrotation Yrotation Xrotation
						End Site
						{
							OFFSET 0.000000 0.000000 0.000000
						}
					}
				}
			}
		}
	}
	JOINT LowerBack
	{
		OFFSET 0.000000 0.000000 0.000000
		CHANNELS 3 Zrotation Yrotation Xrotation
		JOINT Spine
		{
			OFFSET 0.028270 2.035590 -0.193380
			CHANNELS 3 Zrotation Yrotation Xrotation
			JOINT Spine1
			{
				OFFSET 0.056720 2.048850 -0.042750
				CHANNELS 3 Zrotation Yrotation Xrotation
				JOINT Neck
				{
					OFFSET 0.000000 0.000000 0.000000
					CHANNELS 3 Zrotation Yrotation Xrotation
					JOINT Neck1
					{
						OFFSET -0.054170 1.746240 0.172020
						CHANNELS 3 Zrotation Yrotation Xrotation
						JOINT Head
						{
							OFFSET 0.104070 1.761360 -0.123970
							CHANNELS 3 Zrotation Yrotation Xrotation
							End Site
							{
								OFFSET 0.000000 0.000000 0.000000
							}
						}
					}
				}
				JOINT LeftShoulder
				{
					OFFSET 0.000000 0.000000 0.000000
					CHANNELS 3 Zrotation Yrotation Xrotation
					JOINT LeftArm
					{
						OFFSET 3.362410 1.200890 -0.311210
						CHANNELS 3 Zrotation Yrotation Xrotation
						JOINT LeftForeArm
						{
							OFFSET 4.983000 -0.000000 -0.000000
							CHANNELS 3 Zrotation Yrotation Xrotation
							JOINT LeftHand
							{
								OFFSET 3.483560 -0.000000 -0.000000
								CHANNELS 3 Zrotation Yrotation Xrotation
								JOINT LeftFingerBase
								{
									OFFSET 0.000000 0.000000 0.000000
									CHANNELS 3 Zrotation Yrotation Xrotation
									JOINT LeftHandIndex1
									{
										OFFSET 0.715260 -0.000000 -0.000000
										CHANNELS 3 Zrotation Yrotation Xrotation
										End Site
										{
											OFFSET 0.000000 0.000000 0.000000
										}
									}
								}
								JOINT LThumb
								{
									OFFSET 0.000000 0.000000 0.000000
									CHANNELS 3 Zrotation Yrotation Xrotation
									End Site
									{
										OFFSET 0.000000 0.000000 0.000000
									}
								}
							}
						}
					}
				}
				JOINT RightShoulder
				{
					OFFSET 0.000000 0.000000 0.000000
					CHANNELS 3 Zrotation Yrotation Xrotation
					JOINT RightArm
					{
						OFFSET -3.136600 1.374050 -0.404650
						CHANNELS 3 Zrotation Yrotation Xrotation
						JOINT RightForeArm
						{
							OFFSET -5.241900 -0.000000 -0.000000
							CHANNELS 3 Zrotation Yrotation Xrotation
							JOINT RightHand
							{
								OFFSET -3.444170 -0.000000 -0.000000
								CHANNELS 3 Zrotation Yrotation Xrotation
								JOINT RightFingerBase
								{
									OFFSET 0.000000 0.000000 0.000000
									CHANNELS 3 Zrotation Yrotation Xrotation
									JOINT RightHandIndex1
									{
										OFFSET -0.622530 -0.000000 -0.000000
										CHANNELS 3 Zrotation Yrotation Xrotation
										End Site
										{
											OFFSET 0.000000 0.000000 0.000000
										}
									}
								}
								JOINT RThumb
								{
									OFFSET 0.000000 0.000000 0.000000
									CHANNELS 3 Zrotation Yrotation Xrotation
									End Site
									{
										OFFSET 0.000000 0.000000 0.000000
									}
								}
							}
						}
					}
				}
			}
		}
	}
}
MOTION
Frames: 7
Frame Time: 0.033333
98.209068 17.001012 8.238624 90.569796 -9.213974 -56.886523 -76.394604 -46.742883 34.880595 0.078295 4.566788 -40.682390 -99.945807 60.708047 -79.190616 -45.611066 39.241111 -31.663271 3.975554 -2.031369 -0.285524 30.556676 -4.906373 -103.661479 67.645752 -58.023139 -126.734718 114.332429 -41.173427 -96.199007 47.034605 -31.595751 -23.871842 6.790141 -0.628233 -26.378473 -100.467137 67.900115 -17.798594 165.662153 70.375547 157.069815 137.325344 62.273369 136.413342 1.744847 -15.524036 30.038742 -9.055161 -37.442589 4.051712 0.573911 -0.419430 0.401112 78.794212 63.403531 10.152025 96.504822 79.248874 24.588299 -8.780240 13.035353 -100.927392 -9.551769 -43.272516 88.839225 -50.336403 -25.185795 7.834900 -0.585136 -0.426504 0.429977 0.550228 0.404555 -0.577737 57.554391 38.446231 79.843891 47.722892 16.931492 173.506332 21.224095 -37.059265 35.002620 7.807251 -7.301816 56.077092 32.039411 40.952799 26.159821 -0.552815 0.629982 -0.573478 -0.566513 -0.536830 -0.357219 
98.208015 17.001836 8.239542 90.579086 -9.183839 -56.786616 -76.325338 -46.892532 34.770135 0.055773 4.447376 -40.689704 -99.693583 60.765841 -79.006241 -45.211577 39.499958 -31.573372 3.950388 -2.051074 0.486303 30.608479 -4.886526 -103.614726 67.594931 -58.128652 -126.692931 114.650370 -41.311634 -96.249295 46.325635 -31.935733 -23.316913 6.834257 -0.644278 -26.305423 -100.692615 67.791757 -18.113510 165.668638 70.381984 157.067753 137.653065 62.263866 136.650264 1.431702 -15.969467 30.163234 -8.924838 -37.740792 4.261886 0.559338 -0.431858 0.418093 78.751076 63.354337 9.939150 94.001151 79.356402 22.105737 -8.552879 13.169570 -100.970236 -10.068610 -44.419049 89.586885 -50.226207 -25.344857 7.803015 -0.588828 -0.420537 0.426973 0.549625 0.382082 -0.573920 57.498725 38.507068 79.644629 47.780844 16.915709 173.626907 21.326525 -36.827619 35.017772 7.687875 -7.479781 55.650575 31.731334 41.120562 25.645630 -0.576442 0.624274 -0.578808 -0.554084 -0.543376 -0.385628 
98.207222 17.002733 8.240449 90.548557 -9.198844 -56.727082 -76.268559 -46.989280 34.779484 0.037429 4.388321 -40.756450 -99.328331 60.803720 -78.680633 -44.606463 39.819896 -31.345624 3.896216 -2.084708 1.495031 30.533525 -4.935365 -103.554004 67.899816 -58.241558 -127.093618 114.710842 -41.526892 -96.123681 44.915393 -32.326957 -22.430285 6.877754 -0.648124 -26.447383 -100.643707 67.766906 -18.164557 165.934983 70.328867 157.397361 137.664888 62.341746 136.643191 1.547179 -15.922099 29.922318 -9.147901 -37.977887 4.722035 0.574813 -0.427292 0.407892 78.570572 63.304449 9.715326 91.951613 79.554823 19.933701 -8.174686 13.214211 -100.745714 -9.021367 -45.489607 88.886418 -50.460493 -25.166179 8.176458 -0.585273 -0.425437 0.432628 0.553171 0.407040 -0.581600 57.282692 38.695640 79.478018 47.877248 16.865510 173.669250 21.584217 -36.661708 35.003885 7.939430 -7.541117 55.308646 30.452718 41.736904 23.890823 -0.552754 0.633422 -0.575638 -0.571076 -0.539695 -0.358199 
98.206535 17.003565 8.241342 90.548046 -9.196055 -56.658588 -76.161503 -47.142165 34.642451 0.111851 4.198014 -40.735874 -99.153931 60.865986 -78.555950 -44.568704 40.118343 -31.575501 3.821957 -2.094040 2.502339 30.589170 -4.883640 -103.433940 67.769822 -58.326490 -127.071238 114.934670 -41.710090 -96.132784 44.281058 -32.693488 -22.019280 6.929963 -0.669824 -26.440735 -100.868197 67.722467 -18.512564 165.988785 70.390113 157.425881 138.052342 62.307829 136.932178 1.177389 -16.415041 30.194531 -8.889696 -38.194384 4.826449 0.565064 -0.434426 0.420269 78.375247 63.285750 9.388115 89.372452 79.707157 17.285021 -7.724698 13.317296 -100.746134 -9.421025 -46.351295 89.936649 -50.685450 -25.380688 8.189029 -0.594870 -0.423770 0.429847 0.552329 0.379288 -0.571759 57.155604 38.806974 79.257852 47.929586 16.890729 173.675702 21.812362 -36.475162 34.972381 7.712221 -7.689149 54.761380 30.211665 41.466673 23.572690 -0.583590 0.629321 -0.577163 -0.553337 -0.542349 -0.392638 
98.205879 17.004211 8.242195 90.512110 -9.272771 -56.607423 -76.067028 -47.249037 34.636683 0.194862 4.132515 -40.825748 -98.923532 60.977691 -78.332762 -44.477927 40.390180 -31.723589 3.758282 -2.121383 3.475605 30.506350 -4.901729 -103.277170 68.064922 -58.412775 -127.533214 114.957548 -41.916196 -96.036734 42.912094 -33.065816 -21.223328 6.959037 -0.683056 -26.562058 -100.708471 67.709134 -18.527682 166.356930 70.335045 157.887458 138.166933 62.430992 136.975023 1.562675 -16.257741 29.810337 -9.367135 -38.636836 5.510913 0.571753 -0.432118 0.416171 78.140063 63.270550 9.196146 86.919601 79.864454 14.670779 -7.336482 13.429928 -100.584302 -7.340162 -47.292120 88.639717 -51.208310 -25.301569 8.174859 -0.581727 -0.427268 0.439416 0.556847 0.420077 -0.589435 56.953522 38.979200 79.112708 47.955256 16.908859 173.625547 22.258254 -36.422240 34.881074 7.857783 -7.491508 54.314130 29.130556 41.389972 22.559861 -0.555786 0.637822 -0.588594 -0.583272 -0.542720 -0.362596 
98.205307 17.004724 8.243013 90.493346 -9.316184 -56.524428 -75.968520 -47.386974 34.518671 0.344892 3.983768 -40.814010 -98.764054 61.075208 -78.170317 -44.854701 40.622759 -32.238480 3.661767 -2.119442 4.544018 30.569428 -4.830894 -103.033075 67.870838 -58.402318 -127.523273 115.090966 -42.085963 -96.072649 42.432230 -33.396955 -21.056459 6.962886 -0.714454 -26.385780 -100.793436 67.675572 -18.781295 166.440870 70.424653 157.949251 138.648432 62.376227 137.295651 1.387912 -16.475988 30.084757 -9.150393 -38.728111 5.559831 0.575964 -0.433107 0.424006 77.820524 63.249222 8.841611 84.183415 79.837745 11.852482 -6.973744 13.746617 -100.737487 -6.672243 -47.603278 88.782566 -51.786802 -25.308606 8.285043 -0.600476 -0.427922 0.427102 0.556543 0.384838 -0.575879 56.802662 39.050308 78.905708 47.945743 17.039655 173.506954 22.645438 -36.391219 34.793113 7.455928 -7.434681 53.905239 29.381037 39.839742 23.002982 -0.593484 0.634246 -0.584725 -0.547951 -0.551738 -0.396551 
98.204765 17.005254 8.243873 90.451661 -9.453283 -56.413760 -75.817132 -47.469186 34.431439 0.368001 4.051929 -40.956374 -98.705348 61.376511 -78.067799 -44.977674 40.638139 -32.333111 3.644871 -2.166592 5.272139 30.557067 -4.863232 -102.766834 68.192558 -58.412496 -127.909675 115.102775 -42.187647 -95.963258 41.238053 -33.812211 -20.417271 6.944988 -0.748433 -26.251044 -100.490618 67.656601 -18.758466 166.642067 70.377626 158.275493 138.842217 62.543499 137.396630 1.848256 -16.368973 29.701637 -9.768890 -39.180862 6.325714 0.580425 -0.437742 0.424389 77.515652 63.252579 8.743572 81.373707 79.812030 8.905384 -6.899629 14.065257 -100.787161 -3.224660 -47.779750 85.951173 -52.402857 -25.444290 7.819499 -0.581085 -0.431840 0.450184 0.569673 0.436479 -0.604680 56.591976 39.190387 78.720163 47.850502 17.184896 173.363253 23.223908 -36.531462 34.670147 7.602369 -7.155563 53.297854 28.337820 38.926250 22.581257 -0.568379 0.641235 -0.614045 -0.603179 -0.550558 -0.376339 
